<svg id="레이어_1" data-name="레이어 1" xmlns="http://www.w3.org/2000/svg" viewBox="0 0 350 350"><defs><style>.cls-1{stroke:#000;stroke-miterlimit:10;stroke-width:0.25px;}</style></defs><path d="M196,144.5a8.95,8.95,0,1,0-6.37-2.62A8.66,8.66,0,0,0,196,144.5Zm-42,0a8.95,8.95,0,1,0-6.37-2.62A8.66,8.66,0,0,0,154,144.5Zm21,39a31.81,31.81,0,0,0,18.51-5.77,33,33,0,0,0,12.06-15.21H144.43a33,33,0,0,0,12.06,15.21A31.81,31.81,0,0,0,175,183.47Zm0,27a58.33,58.33,0,0,1-23.38-4.72,59.89,59.89,0,0,1-31.85-31.84,60.27,60.27,0,0,1,0-46.76,59.95,59.95,0,0,1,31.85-31.85,60.27,60.27,0,0,1,46.76,0,59.95,59.95,0,0,1,31.85,31.85,60.27,60.27,0,0,1,0,46.76,59.89,59.89,0,0,1-31.85,31.84A58.33,58.33,0,0,1,175,210.44Zm0-12q20.08,0,34-13.93t13.94-34q0-20.08-13.94-34t-34-13.94q-20.08,0-34,13.94T127,150.5q0,20.08,13.94,34T175,198.45Z"/><path class="cls-1" d="M131.81,220.73H140l13.43,32.72h.14l13.36-32.72H175v38.72h-5.54V226.74h-.21L155.7,259.45h-5.13l-13.43-32.71h-.2v32.71h-5.13Z"/><path class="cls-1" d="M197.56,244.22l-15.3-23.49h5.8L200.47,240h.13l12.33-19.22h5.26L203,244.22v15.23h-5.4Z"/></svg>