<svg id="레이어_1" data-name="레이어 1" xmlns="http://www.w3.org/2000/svg" viewBox="0 0 70 70"><defs><style>.cls-1{stroke:#000;stroke-miterlimit:10;stroke-width:0.25px;}</style></defs><path d="M38.48,29.94a1.43,1.43,0,0,0,1.05-.43,1.49,1.49,0,1,0-2.11-2.11,1.49,1.49,0,0,0,1.06,2.54Zm-7,0a1.49,1.49,0,1,0-1.05-.43A1.43,1.43,0,0,0,31.52,29.94ZM35,36.4a5.24,5.24,0,0,0,3.07-.95,5.51,5.51,0,0,0,2-2.52H29.93a5.51,5.51,0,0,0,2,2.52A5.24,5.24,0,0,0,35,36.4Zm0,4.48a9.58,9.58,0,0,1-3.88-.79,9.93,9.93,0,0,1-5.28-5.28,10,10,0,0,1,0-7.75,10,10,0,0,1,5.28-5.28,10,10,0,0,1,7.76,0,10,10,0,0,1,5.28,5.28,10,10,0,0,1,0,7.75,9.93,9.93,0,0,1-5.28,5.28A9.58,9.58,0,0,1,35,40.88Zm0-2a7.89,7.89,0,0,0,8-7.95,7.89,7.89,0,0,0-8-8,7.89,7.89,0,0,0-7.95,8,7.89,7.89,0,0,0,8,8Z"/><path class="cls-1" d="M27.84,42.58h1.35L31.42,48h0l2.22-5.43H35V49h-.92V43.58h0L31.8,49H31l-2.23-5.42h0V49h-.85Z"/><path class="cls-1" d="M38.74,46.47,36.2,42.58h1l2,3.19h0l2-3.19h.87l-2.52,3.89V49h-.9Z"/></svg>