<svg id="레이어_1" data-name="레이어 1" xmlns="http://www.w3.org/2000/svg" viewBox="0 0 70 70"><defs><style>.cls-1{stroke:#000;stroke-miterlimit:10;}</style></defs><path d="M9.29,35.37C9.29,22.49,13.93,16,22.11,16a11.56,11.56,0,0,1,7.58,2.77c1.08.95,0,2-1.19,1a11,11,0,0,0-6.59-2.34c-6.39,0-10.61,6.11-10.61,17.94v.72a12.75,12.75,0,0,1,9.63-4.39c8.09-.15,11.59,5,11.59,10.78s-4,11.07-11,11.07c-5.67,0-12.26-2.82-12.26-14ZM21.55,52.12c5.25,0,9-4.3,9-9.64s-3.14-9.4-9.84-9.4a11.85,11.85,0,0,0-9.37,5.15v.38C11.3,49.49,16.55,52.12,21.55,52.12Z"/><ellipse class="cls-1" cx="15.48" cy="40.26" rx="3.88" ry="5.48"/><path d="M36.93,35.37C36.93,22.49,41.57,16,49.76,16a11.53,11.53,0,0,1,7.57,2.77c1.08.95.05,2-1.19,1a11,11,0,0,0-6.59-2.34c-6.38,0-10.61,6.11-10.61,17.94v.72a12.75,12.75,0,0,1,9.63-4.39c8.09-.15,11.59,5,11.59,10.78s-4,11.07-11,11.07c-5.67,0-12.26-2.82-12.26-14ZM49.19,52.12c5.25,0,9-4.3,9-9.64s-3.14-9.4-9.84-9.4a11.86,11.86,0,0,0-9.37,5.15v.38C38.94,49.49,44.19,52.12,49.19,52.12Z"/><ellipse class="cls-1" cx="43.12" cy="40.26" rx="3.88" ry="5.48"/></svg>